<svg width="6524" height="2581" viewBox="0 0 6524 2581" fill="none" xmlns="http://www.w3.org/2000/svg">
<g filter="url(#filter0_d_1539_1113)">
<path d="M563.758 2496.18C1671.37 1993.51 2049.34 1439.17 2186.32 1018.63C2339.18 549.293 2260.35 36.3272 2425.36 4.47155C2531.02 -15.9338 2661.03 175.613 2903.43 595.508C3638.48 1868.78 3655.12 2206.92 3968.29 2294.68C4407 2417.71 4677.45 1838.92 5351.8 1851.39C5847.08 1860.58 6247.87 2182.84 6518 2469.3" stroke="#4A3AFF" stroke-width="5" stroke-miterlimit="10"/>
<path d="M537.162 2445.65C1613.59 1953.8 2013.27 1414.97 2161.11 1020.84C2326.32 580.384 2248.3 93.9159 2411.59 70.9082C2516.58 56.1055 2644.15 244.377 2878.28 649.882C3589.85 1882.03 3611.92 2224.37 3922.68 2307.8C4363.93 2424.6 4622.59 1803.94 5304.08 1795.49C5318.94 1795.31 5333.57 1795.31 5348.21 1795.67C5831.75 1808.15 6238.25 2130.56 6514.15 2415.26" stroke="#4A3AFF" stroke-width="5" stroke-miterlimit="10"/>
<path d="M510.65 2395.11C1555.8 1914.14 1976.88 1391.73 2135.97 1023.07C2313.28 612.148 2236.36 151.565 2397.89 137.374C2502.23 128.19 2627.37 313.201 2853.19 704.301C3541.11 1895.25 3568.49 2242.91 3877.18 2320.92C4320.58 2432.97 4567.98 1768.66 5256.49 1739.57C5271.6 1738.93 5286.65 1738.29 5301.71 1738.36C5793.23 1740.87 6220.86 2069.95 6510.39 2361.21" stroke="#4A3AFF" stroke-width="5" stroke-miterlimit="10"/>
<path d="M484.08 2344.58C1498.11 1874.34 1939.93 1369.61 2110.78 1025.31C2299.7 644.585 2224.45 209.261 2384.13 203.857C2487.88 200.336 2610.45 382.01 2828.06 758.705C3492.42 1908.6 3525.21 2260.83 3831.64 2334.04C4277.4 2440.52 4513.4 1733.11 5208.85 1683.65C5224.29 1682.55 5239.71 1681.49 5255.08 1681.03C5754.56 1666.25 6203.36 2009.31 6506.51 2307.13" stroke="#4A3AFF" stroke-width="5" stroke-miterlimit="10"/>
<path d="M457.518 2294.05C1440.37 1834.68 1902.24 1348.67 2085.59 1027.54C2285.36 677.68 2212.62 267.017 2370.4 270.338C2473.57 272.497 2593.59 450.833 2802.95 813.124C3443.73 1921.89 3481.95 2278.71 3786.11 2347.14C4234.36 2447.99 4458.91 1697.31 5161.22 1627.67C5176.99 1626.14 5192.77 1624.61 5208.61 1623.66C5716.01 1595.46 6185.97 1948.65 6502.79 2253.07" stroke="#4A3AFF" stroke-width="5" stroke-miterlimit="10"/>
<path d="M430.955 2243.52C1382.63 1795 1863.59 1329 2060.45 1029.79C2269.92 711.388 2200.78 324.819 2356.7 336.805C2459.32 344.704 2576.75 519.642 2777.86 867.544C3395.1 1935.17 3438.77 2296.53 3740.61 2360.26C4191.32 2455.4 4404.46 1661.26 5113.63 1571.8C5129.74 1569.76 5145.86 1567.69 5162.1 1566.38C5677.41 1524.89 6168.64 1888.06 6499.03 2199.07" stroke="#4A3AFF" stroke-width="5" stroke-miterlimit="10"/>
<path d="M404.41 2192.99C1324.88 1755.28 1823.69 1310.58 2035.24 1032.03C2252.89 745.434 2189.04 382.699 2342.93 403.288C2445.04 416.942 2559.87 588.513 2752.7 921.949C3346.38 1948.45 3395.55 2314.31 3695.05 2373.36C4148.32 2462.75 4349.96 1624.99 5065.97 1515.88C5082.48 1513.37 5098.89 1510.8 5115.5 1509.07C5638.68 1454.39 6151.16 1827.47 6495.17 2145.02" stroke="#4A3AFF" stroke-width="5" stroke-miterlimit="10"/>
<path d="M377.848 2142.46C1267.14 1715.57 1733.28 1248.48 2010.07 1034.26C2177.7 744.836 2177.29 440.654 2329.2 469.754C2430.8 489.226 2543.01 657.275 2727.59 976.444C3297.7 1961.81 3352.36 2332.09 3649.51 2386.56C4105.33 2470.09 4295.48 1588.59 5018.32 1460.03C5035.13 1457.05 5051.95 1453.99 5068.97 1451.81C5600.07 1384.08 6133.84 1766.88 6491.42 2091.04" stroke="#4A3AFF" stroke-width="5" stroke-miterlimit="10"/>
<path d="M351.281 2091.93C1209.4 1675.86 1688.14 1221.22 1984.89 1036.5C2154.64 772.774 2165.53 498.687 2315.46 536.237C2416.56 561.556 2526.14 726.054 2702.46 1030.79C3248.92 1975.02 3309.2 2349.68 3604 2399.6C4062.37 2477.21 4240.98 1551.84 4970.69 1404.04C4987.83 1400.56 5005 1397.01 5022.43 1394.41C5561.44 1313.72 6116.36 1706.19 6487.62 2036.91" stroke="#4A3AFF" stroke-width="5" stroke-miterlimit="10"/>
<path d="M324.719 2041.4C1151.65 1636.15 1642.99 1193.98 1959.69 1038.73C2131.56 800.694 2153.78 556.778 2301.72 602.702C2402.32 633.915 2509.28 794.877 2677.33 1085.19C3200.32 1988.35 3266.06 2367.27 3558.46 2412.69C4019.44 2484.31 4186.44 1514.97 4923.06 1348.09C4940.53 1344.14 4958.06 1340.11 4975.89 1337.07C5522.8 1243.5 6098.94 1645.53 6483.83 1982.84" stroke="#4A3AFF" stroke-width="5" stroke-miterlimit="10"/>
<path d="M298.168 1990.87C1093.93 1596.44 1597.85 1166.74 1934.51 1040.98C2108.49 828.647 2142.01 614.965 2287.97 669.185C2388.05 706.353 2492.42 863.718 2652.22 1139.57C3151.63 2001.55 3222.94 2384.78 3512.93 2425.78C3976.52 2491.31 4131.85 1477.93 4875.43 1292.14C4893.24 1287.68 4911.12 1283.21 4929.33 1279.71C5484.2 1173.36 6081.52 1584.89 6480.03 1928.76" stroke="#4A3AFF" stroke-width="5" stroke-miterlimit="10"/>
<path d="M271.602 1940.32C1036.14 1556.75 1552.74 1139.49 1909.35 1043.28C2085.44 856.645 2130.22 673.242 2274.21 735.729C2373.75 778.897 2475.55 932.588 2627.07 1194.09C3102.93 2014.94 3179.79 2402.37 3467.41 2438.99C3933.64 2498.37 4077.22 1440.92 4827.8 1236.33C4845.96 1231.38 4864.12 1226.44 4882.79 1222.55C5445.62 1103.48 6064.1 1524.4 6476.23 1874.86" stroke="#4A3AFF" stroke-width="5" stroke-miterlimit="10"/>
<path d="M245.039 1889.79C978.41 1517.04 1507.54 1112.24 1884.16 1045.45C2062.36 884.52 2118.35 731.472 2260.49 802.133C2359.45 851.333 2458.69 1001.35 2601.96 1248.45C3054.32 2028.17 3136.71 2419.75 3421.86 2452.04C3890.73 2505.15 4022.49 1403.53 4780.17 1180.34C4798.64 1174.9 4817.23 1169.51 4836.3 1165.11C5407.12 1033.47 6046.73 1463.62 6472.48 1820.72" stroke="#4A3AFF" stroke-width="5" stroke-miterlimit="10"/>
<path d="M218.527 1839.26C920.663 1477.33 1462.39 1085.01 1858.98 1047.72C2039.28 912.488 2106.45 789.796 2246.76 868.616C2345.12 923.877 2441.84 1070.16 2576.85 1302.85C3005.59 2041.46 3093.6 2437.17 3376.33 2465.16C3847.87 2511.91 3967.72 1366.06 4732.52 1124.43C4751.34 1118.47 4770.3 1112.62 4789.71 1107.79C5368.54 963.525 6029.27 1403.04 6468.73 1766.67" stroke="#4A3AFF" stroke-width="5" stroke-miterlimit="10"/>
<path d="M191.932 1788.73C862.913 1437.62 1417.26 1057.76 1833.81 1049.94C2016.22 940.41 2094.51 848.134 2233.03 935.129C2330.75 996.467 2424.98 1139 2551.66 1357.3C2956.84 2054.78 3050.43 2454.48 3330.73 2478.3C3804.93 2518.6 3912.81 1328.68 4684.83 1068.52C4703.98 1062.08 4723.3 1055.79 4743.09 1050.49C5329.99 893.705 6011.78 1342.46 6464.79 1712.65" stroke="#4A3AFF" stroke-width="5" stroke-miterlimit="10"/>
<path d="M165.369 1738.19C805.164 1397.91 1372.1 1030.51 1808.62 1052.17C1993.16 968.346 2082.51 906.502 2219.29 1001.56C2316.33 1069.01 2408.11 1207.79 2526.62 1411.69C2908.22 2068.02 3007.39 2471.71 3285.28 2491.39C3762.14 2525.14 3857.96 1291 4637.27 1012.65C4656.75 1005.7 4676.43 998.961 4696.7 993.221C5291.59 823.885 5994.43 1281.79 6461.06 1658.5" stroke="#4A3AFF" stroke-width="5" stroke-miterlimit="10"/>
<path d="M138.803 1687.66C747.428 1358.22 1326.95 1003.32 1783.44 1054.41C1969.99 996.237 2070.45 964.902 2205.55 1068.05C2301.87 1141.6 2391.25 1276.6 2501.49 1466.05C2859.53 2081.24 2964.28 2488.88 3239.74 2504.43C3719.26 2531.52 3802.97 1253.26 4589.63 956.589C4609.44 949.119 4629.49 941.955 4650.07 935.755C5253.15 754.143 5977.06 1221.17 6457.26 1604.51" stroke="#4A3AFF" stroke-width="5" stroke-miterlimit="10"/>
<path d="M112.24 1637.07C689.679 1318.45 1281.79 975.97 1758.24 1056.6C1947 1024.16 2058.35 1023.22 2191.79 1134.45C2287.38 1214.05 2374.38 1345.35 2476.34 1520.45C2810.83 2094.5 2921.16 2506.04 3194.2 2517.55C3676.39 2537.94 3747.91 1215.55 4542 900.762C4562.13 892.771 4582.55 885.179 4603.52 878.52C5214.77 684.462 5959.6 1160.57 6453.47 1550.53" stroke="#4A3AFF" stroke-width="5" stroke-miterlimit="10"/>
<path d="M85.6914 1586.55C631.927 1278.87 1230.38 1140.99 1733.08 1058.89C1921.19 1028.17 2046.24 1081.69 2178.06 1200.99C2272.88 1286.72 2357.54 1414.23 2451.25 1574.93C2762.16 2107.88 2878.05 2523.21 3148.68 2530.73C3633.5 2544.18 3692.78 1177.71 4494.37 844.796C4514.81 836.315 4535.65 828.279 4556.98 821.161C5176.4 614.765 5942.13 1099.92 6449.68 1496.41" stroke="#4A3AFF" stroke-width="5" stroke-miterlimit="10"/>
<path d="M59.1289 1536.04C574.227 1239.07 1180.13 964.626 1707.91 1061.1C1898.29 1095.91 2034.05 1140.04 2164.33 1267.45C2258.33 1359.29 2340.67 1483.01 2426.12 1629.32C2713.49 2121.13 2834.91 2540.23 3103.15 2543.8C3590.57 2550.29 3637.58 1139.79 4446.73 788.846C4467.51 779.845 4488.71 771.426 4510.44 763.818C5138.53 546.278 5924.76 1039.28 6445.94 1442.35" stroke="#4A3AFF" stroke-width="5" stroke-miterlimit="10"/>
<path d="M32.5625 1485.52C516.441 1199.37 1139.05 915.701 1682.73 1063.35C1875.57 1115.73 2021.83 1198.44 2150.59 1333.93C2243.75 1431.9 2323.81 1551.85 2400.99 1683.74C2664.8 2134.44 2791.77 2558.33 3057.61 2556.93C3547.63 2554.36 3581.72 1100.79 4399.09 732.941C4420.17 723.389 4441.77 714.577 4463.88 706.504C5100.03 476.106 5907.34 978.647 6442.09 1388.29" stroke="#4A3AFF" stroke-width="5" stroke-miterlimit="10"/>
<path d="M6 1435.01C458.692 1159.69 1101.19 867.084 1657.53 1065.61C2496.22 1364.94 2568.78 2577.09 3012.09 2570.05C3517.45 2562.03 3527.79 985.092 4417.34 649.192C5061.51 405.95 5889.99 918.028 6438.29 1334.26" stroke="#4A3AFF" stroke-width="5" stroke-miterlimit="10"/>
</g>
<defs>
<filter id="filter0_d_1539_1113" x="0.701172" y="0.5" width="6523.12" height="2580.08" filterUnits="userSpaceOnUse" color-interpolation-filters="sRGB">
<feFlood flood-opacity="0" result="BackgroundImageFix"/>
<feColorMatrix in="SourceAlpha" type="matrix" values="0 0 0 0 0 0 0 0 0 0 0 0 0 0 0 0 0 0 127 0" result="hardAlpha"/>
<feOffset dy="4"/>
<feGaussianBlur stdDeviation="2"/>
<feComposite in2="hardAlpha" operator="out"/>
<feColorMatrix type="matrix" values="0 0 0 0 0 0 0 0 0 0 0 0 0 0 0 0 0 0 0.25 0"/>
<feBlend mode="normal" in2="BackgroundImageFix" result="effect1_dropShadow_1539_1113"/>
<feBlend mode="normal" in="SourceGraphic" in2="effect1_dropShadow_1539_1113" result="shape"/>
</filter>
</defs>
</svg>
